<svg width="28" height="28" viewBox="0 0 28 28" fill="none" xmlns="http://www.w3.org/2000/svg">
<mask id="mask0_872_8632" style="mask-type:alpha" maskUnits="userSpaceOnUse" x="0" y="0" width="28" height="28">
<rect width="28" height="28" fill="#D9D9D9"/>
</mask>
<g mask="url(#mask0_872_8632)">
<path d="M6.4165 23.6256V6.19303C6.4165 5.60366 6.62067 5.10482 7.029 4.69648C7.43734 4.28815 7.93618 4.08398 8.52555 4.08398H19.4741C20.0635 4.08398 20.5623 4.28815 20.9707 4.69648C21.379 5.10482 21.5832 5.60366 21.5832 6.19303V23.6256L13.9998 19.334L6.4165 23.6256ZM8.1665 20.9423L13.9998 17.3956L19.8332 20.9423V6.19303C19.8332 6.10319 19.7957 6.02094 19.7209 5.94628C19.6462 5.87141 19.564 5.83398 19.4741 5.83398H8.52555C8.43571 5.83398 8.35346 5.87141 8.2788 5.94628C8.20393 6.02094 8.1665 6.10319 8.1665 6.19303V20.9423Z" fill="#1C1B1F"/>
</g>
</svg>
