<svg width="61" height="56" viewBox="0 0 61 56" fill="none" xmlns="http://www.w3.org/2000/svg">
<circle cx="28" cy="28" r="28" fill="#E0DFDF"/>
<path d="M10.4972 45.2521C8.7023 43.4573 12.3446 36.7114 12.3446 36.7114C11.7288 35.4076 11.2421 34.0713 10.8843 32.7024C10.5265 31.3335 10.3476 29.9327 10.3476 28.5C10.3476 26.0792 10.8068 23.8042 11.7253 21.675C12.6437 19.5458 13.8901 17.6937 15.4644 16.1187C17.0388 14.5437 18.8902 13.2969 21.0187 12.3781C23.1469 11.4594 25.4211 11 27.8413 11C30.2612 11 32.5363 11.4592 34.6668 12.3776C36.7969 13.2961 38.65 14.5425 40.226 16.1168C41.8019 17.6912 43.0494 19.5426 43.9685 21.6711C44.8879 23.7993 45.3476 26.0735 45.3476 28.4937C45.3476 30.9135 44.8882 33.1887 43.9695 35.3192C43.0507 37.4493 41.8039 39.3024 40.2289 40.8783C38.6539 42.4543 36.8018 43.7018 34.6726 44.6209C32.5434 45.5403 30.2684 46 27.8476 46C26.4149 46 25.0141 45.8211 23.6452 45.4633C22.2763 45.1056 20.94 44.6188 19.6362 44.0031C19.6362 44.0031 11.835 46.59 10.4972 45.2521Z" fill="#33520c"/>
<path d="M21.3677 32.5383C24.1308 29.2252 28.0462 28.5968 28.5985 29.0573C26.2784 30.2678 24.1404 32.5309 22.5926 34.5479C30.637 40.3217 34.5953 27.5747 35.2645 21.3494C35.2645 21.3494 29.93 26.1916 26.9557 25.8719C25.0746 25.6697 23.3385 25.2619 21.588 27.1001C20.0286 28.7377 20.1711 31.94 21.3677 32.5383Z" fill="white"/>
<path d="M20.437 37.8076C20.437 37.8076 21.5886 35.8562 22.5926 34.5479M22.5926 34.5479C24.1404 32.5309 26.2784 30.2678 28.5985 29.0573C28.0462 28.5968 24.1308 29.2252 21.3677 32.5383C20.1711 31.94 20.0286 28.7377 21.588 27.1001C23.3385 25.2619 25.0746 25.6697 26.9557 25.8719C29.93 26.1916 35.2645 21.3494 35.2645 21.3494C34.5953 27.5747 30.637 40.3217 22.5926 34.5479Z" stroke="white"/>
<circle cx="49" cy="12" r="11" fill="#c50035" stroke="white" stroke-width="2"/>
</svg>
