<svg width="21" height="27" viewBox="0 0 21 27" fill="none" xmlns="http://www.w3.org/2000/svg">
<path d="M10.2679 24.575C10.3308 24.575 10.3937 24.5577 10.4566 24.5231C10.5195 24.4885 10.5666 24.4539 10.5981 24.4193L18.3332 15.9067C18.5219 15.6991 18.6595 15.4655 18.7459 15.206C18.8324 14.9465 18.8756 14.6869 18.8756 14.4274C18.8756 14.1506 18.8324 13.8867 18.7459 13.6359C18.6595 13.385 18.5219 13.1644 18.3332 12.974L14.3242 8.56205C14.1512 8.35442 13.9508 8.20303 13.7228 8.10787C13.4948 8.01271 13.2551 7.96513 13.0035 7.96513C12.7677 7.96513 12.5319 8.01271 12.2961 8.10787C12.0602 8.20303 11.848 8.35442 11.6593 8.56205L11.3999 8.84753L13.145 10.794C13.3809 11.0362 13.5538 11.3131 13.6639 11.6245C13.7739 11.9359 13.8289 12.2647 13.8289 12.6107C13.8289 13.3374 13.6049 13.9473 13.1568 14.4404C12.7087 14.9335 12.1546 15.1801 11.4942 15.1801C11.1798 15.1801 10.8772 15.1195 10.5863 14.9984C10.2954 14.8773 10.04 14.6956 9.81986 14.4534L8.05115 12.5328L3.92417 17.0746C3.87701 17.1265 3.84163 17.1828 3.81805 17.2433C3.79447 17.3039 3.78267 17.3688 3.78267 17.438C3.78267 17.5764 3.82984 17.7018 3.92417 17.8143C4.0185 17.9267 4.12855 17.983 4.25433 17.983C4.31722 17.983 4.3801 17.9657 4.44299 17.9311C4.50588 17.8965 4.55304 17.8619 4.58449 17.8273L7.79174 14.2977L9.11238 15.751L5.92871 19.2806C5.88154 19.3325 5.84617 19.3888 5.82258 19.4493C5.799 19.5099 5.78721 19.5748 5.78721 19.644C5.78721 19.7824 5.83437 19.9035 5.92871 20.0073C6.02304 20.1111 6.13309 20.163 6.25886 20.163C6.32175 20.163 6.38464 20.1457 6.44753 20.1111C6.51041 20.0765 6.55758 20.0419 6.58902 20.0073L9.79628 16.5037L11.1169 17.957L7.93324 21.4866C7.88607 21.5212 7.8507 21.5731 7.82712 21.6423C7.80353 21.7115 7.79174 21.7808 7.79174 21.85C7.79174 21.9884 7.83891 22.1095 7.93324 22.2133C8.02757 22.3171 8.13762 22.369 8.2634 22.369C8.32629 22.369 8.38524 22.356 8.44027 22.3301C8.4953 22.3041 8.54639 22.2652 8.59356 22.2133L11.8008 18.7097L13.1214 20.163L9.91419 23.6926C9.86703 23.7445 9.83165 23.8008 9.80807 23.8613C9.78449 23.9219 9.77269 23.9868 9.77269 24.056C9.77269 24.1944 9.82379 24.3155 9.92598 24.4193C10.0282 24.5231 10.1422 24.575 10.2679 24.575ZM10.2443 26.6513C9.66264 26.6513 9.14775 26.4393 8.69968 26.0154C8.25161 25.5915 7.98827 25.0595 7.90966 24.4193C7.37511 24.3328 6.92704 24.0906 6.56544 23.6926C6.20384 23.2947 5.98373 22.8016 5.90512 22.2133C5.37058 22.1268 4.92644 21.8802 4.5727 21.4736C4.21895 21.067 4.00278 20.5783 3.92417 20.0073C3.32674 19.9208 2.83936 19.6353 2.46204 19.1509C2.08472 18.6664 1.89605 18.0954 1.89605 17.438C1.89605 17.0919 1.95501 16.7589 2.07292 16.4388C2.19084 16.1187 2.35985 15.8375 2.57995 15.5953L8.05115 9.60016L11.1405 13C11.1719 13.0519 11.2191 13.0908 11.282 13.1168C11.3449 13.1427 11.4078 13.1557 11.4707 13.1557C11.6121 13.1557 11.7301 13.1081 11.8244 13.013C11.9187 12.9178 11.9659 12.7924 11.9659 12.6367C11.9659 12.5675 11.9541 12.4982 11.9305 12.429C11.9069 12.3598 11.8716 12.3079 11.8244 12.2733L8.45206 8.56205C8.27912 8.35442 8.07867 8.20303 7.8507 8.10787C7.62273 8.01271 7.38298 7.96513 7.13143 7.96513C6.8956 7.96513 6.65977 8.01271 6.42394 8.10787C6.18812 8.20303 5.97587 8.35442 5.78721 8.56205L2.46204 12.2474C2.32054 12.4031 2.20263 12.5848 2.1083 12.7924C2.01397 13 1.95108 13.2076 1.91964 13.4153C1.88819 13.6229 1.88819 13.8348 1.91964 14.0511C1.95108 14.2674 2.01397 14.4707 2.1083 14.661L0.740499 16.1663C0.473227 15.7683 0.276704 15.3314 0.15093 14.8556C0.025155 14.3798 -0.0220106 13.8997 0.0094331 13.4153C0.0408768 12.9308 0.15093 12.4593 0.339592 12.0008C0.528254 11.5423 0.787664 11.1314 1.11782 10.768L4.44299 7.10868C4.82032 6.71073 5.24088 6.40795 5.70467 6.20033C6.16846 5.9927 6.64405 5.88889 7.13143 5.88889C7.6188 5.88889 8.09439 5.9927 8.55818 6.20033C9.02198 6.40795 9.43468 6.71073 9.79628 7.10868V3.00195L10.3151 3.00199V7.10868C10.6924 6.71073 11.113 6.40795 11.5768 6.20033C12.0406 5.9927 12.5162 5.88889 13.0035 5.88889C13.4909 5.88889 13.9665 5.9927 14.4303 6.20033C14.8941 6.40795 15.3068 6.71073 15.6684 7.10868L19.6539 11.4947C20.0155 11.8927 20.2906 12.3512 20.4793 12.8702C20.6679 13.3893 20.7623 13.917 20.7623 14.4534C20.7623 14.9897 20.6679 15.5131 20.4793 16.0235C20.2906 16.5339 20.0155 16.9881 19.6539 17.3861L11.9187 25.8727C11.6986 26.1149 11.4431 26.3052 11.1523 26.4436C10.8614 26.5821 10.5588 26.6513 10.2443 26.6513Z" fill="black"/>
<path d="M10.3148 3.00205C9.96194 1.94342 12.3031 0.361354 12.9101 1.27186C13.7752 2.56955 10.7473 4.29974 10.3148 3.00205Z" fill="black" stroke="black" stroke-width="0.5"/>
<path d="M9.79599 3.00202C10.1488 1.94339 7.80773 0.36132 7.20072 1.27183C6.33559 2.56952 9.36345 4.29971 9.79599 3.00202Z" fill="black" stroke="black" stroke-width="0.5"/>
</svg>
