<svg width="21" height="20" viewBox="0 0 21 20" fill="none" xmlns="http://www.w3.org/2000/svg">
<path d="M5.8359 14.5L12.9359 12.5L14.9645 5.5L7.86447 7.5L5.8359 14.5ZM10.4002 11.5C9.97756 11.5 9.61834 11.3542 9.3225 11.0625C9.02667 10.7708 8.87875 10.4167 8.87875 10C8.87875 9.58333 9.02667 9.22917 9.3225 8.9375C9.61834 8.64583 9.97756 8.5 10.4002 8.5C10.8228 8.5 11.182 8.64583 11.4779 8.9375C11.7737 9.22917 11.9216 9.58333 11.9216 10C11.9216 10.4167 11.7737 10.7708 11.4779 11.0625C11.182 11.3542 10.8228 11.5 10.4002 11.5ZM10.4002 20C8.99709 20 7.67852 19.7375 6.44447 19.2125C5.21042 18.6875 4.13697 17.975 3.22411 17.075C2.31125 16.175 1.58857 15.1167 1.05607 13.9C0.523574 12.6833 0.257324 11.3833 0.257324 10C0.257324 8.61667 0.523574 7.31667 1.05607 6.1C1.58857 4.88333 2.31125 3.825 3.22411 2.925C4.13697 2.025 5.21042 1.3125 6.44447 0.7875C7.67852 0.2625 8.99709 0 10.4002 0C11.8033 0 13.1218 0.2625 14.3559 0.7875C15.5899 1.3125 16.6634 2.025 17.5763 2.925C18.4891 3.825 19.2118 4.88333 19.7443 6.1C20.2768 7.31667 20.543 8.61667 20.543 10C20.543 11.3833 20.2768 12.6833 19.7443 13.9C19.2118 15.1167 18.4891 16.175 17.5763 17.075C16.6634 17.975 15.5899 18.6875 14.3559 19.2125C13.1218 19.7375 11.8033 20 10.4002 20ZM10.4002 18C12.6485 18 14.563 17.2208 16.1436 15.6625C17.7242 14.1042 18.5145 12.2167 18.5145 10C18.5145 7.78333 17.7242 5.89583 16.1436 4.3375C14.563 2.77917 12.6485 2 10.4002 2C8.15185 2 6.23738 2.77917 4.65679 4.3375C3.07619 5.89583 2.2859 7.78333 2.2859 10C2.2859 12.2167 3.07619 14.1042 4.65679 15.6625C6.23738 17.2208 8.15185 18 10.4002 18Z" fill="#1C1B1F"/>
</svg>
