<svg width="20" height="20" viewBox="0 0 20 20" fill="none" xmlns="http://www.w3.org/2000/svg">
<mask id="mask0_1066_2296" style="mask-type:alpha" maskUnits="userSpaceOnUse" x="0" y="0" width="20" height="20">
<rect width="20" height="20" fill="#D9D9D9"/>
</mask>
<g mask="url(#mask0_1066_2296)">
<path d="M10.0021 17.9166C8.90711 17.9166 7.87787 17.7088 6.9144 17.2933C5.95093 16.8777 5.11287 16.3137 4.40023 15.6014C3.6876 14.889 3.12336 14.0513 2.70753 13.0883C2.29183 12.1252 2.08398 11.0962 2.08398 10.0014C2.08398 8.90638 2.29176 7.87714 2.70732 6.91367C3.12287 5.9502 3.68683 5.11214 4.39919 4.3995C5.11155 3.68686 5.94926 3.12263 6.91232 2.70679C7.87537 2.2911 8.90433 2.08325 9.99919 2.08325C11.0942 2.08325 12.1234 2.29103 13.0869 2.70658C14.0504 3.12214 14.8884 3.6861 15.6011 4.39846C16.3137 5.11082 16.8779 5.94853 17.2938 6.91159C17.7095 7.87464 17.9173 8.9036 17.9173 9.99846C17.9173 11.0935 17.7095 12.1227 17.294 13.0862C16.8784 14.0496 16.3145 14.8877 15.6021 15.6003C14.8897 16.313 14.052 16.8772 13.089 17.293C12.1259 17.7087 11.097 17.9166 10.0021 17.9166ZM10.0007 16.6666C11.8618 16.6666 13.4382 16.0208 14.7298 14.7291C16.0215 13.4374 16.6673 11.861 16.6673 9.99992C16.6673 9.9027 16.6652 9.80332 16.6609 9.70179C16.6566 9.60027 16.6518 9.5095 16.6465 9.4295C16.593 9.81617 16.4255 10.1361 16.144 10.3893C15.8626 10.6425 15.5242 10.7691 15.1288 10.7691H13.2377C12.8147 10.7691 12.4525 10.6186 12.1513 10.3176C11.85 10.0165 11.6994 9.65457 11.6994 9.23179V8.46304H8.62253V6.92575C8.62253 6.50297 8.77315 6.1404 9.0744 5.83804C9.37565 5.53568 9.7378 5.3845 10.1609 5.3845H10.9302V5.06409C10.9302 4.70186 11.0397 4.40186 11.2588 4.16409C11.4777 3.92645 11.7416 3.76061 12.0504 3.66659C11.7245 3.55978 11.3922 3.47749 11.0536 3.41971C10.715 3.36207 10.364 3.33325 10.0007 3.33325C8.13954 3.33325 6.56315 3.97909 5.27148 5.27075C3.97982 6.56242 3.33398 8.13881 3.33398 9.99992V10.1201C3.33398 10.1575 3.33662 10.1976 3.3419 10.2403H7.29232C8.14482 10.2403 8.87079 10.54 9.47023 11.1393C10.0695 11.7387 10.3692 12.4635 10.3692 13.3137V14.0864H8.06148V16.3701C8.37135 16.4662 8.68704 16.5397 9.00857 16.5905C9.33024 16.6412 9.66093 16.6666 10.0007 16.6666Z" fill="#1C1B1F"/>
</g>
</svg>
