<svg width="21" height="18" viewBox="0 0 21 18" fill="none" xmlns="http://www.w3.org/2000/svg">
<path d="M19.5539 8.05V16C19.5539 16.55 19.3553 17.0208 18.958 17.4125C18.5607 17.8042 18.0832 18 17.5253 18H3.32533C2.76747 18 2.28991 17.8042 1.89265 17.4125C1.49539 17.0208 1.29676 16.55 1.29676 16V8.05C0.907949 7.7 0.607889 7.25 0.39658 6.7C0.18527 6.15 0.181044 5.55 0.383901 4.9L1.4489 1.5C1.58414 1.06667 1.82503 0.708333 2.17158 0.425C2.51813 0.141667 2.91962 0 3.37604 0H17.4746C17.931 0 18.3283 0.1375 18.6664 0.4125C19.0045 0.6875 19.2496 1.05 19.4018 1.5L20.4668 4.9C20.6696 5.55 20.6654 6.14167 20.4541 6.675C20.2428 7.20833 19.9427 7.66667 19.5539 8.05ZM12.6568 7C13.1132 7 13.4597 6.84583 13.6964 6.5375C13.9331 6.22917 14.026 5.88333 13.9753 5.5L13.4175 2H11.4396V5.7C11.4396 6.05 11.5579 6.35417 11.7946 6.6125C12.0313 6.87083 12.3187 7 12.6568 7ZM8.09247 7C8.48128 7 8.79825 6.87083 9.04337 6.6125C9.28849 6.35417 9.41104 6.05 9.41104 5.7V2H7.43319L6.87533 5.5C6.80771 5.9 6.89646 6.25 7.14158 6.55C7.3867 6.85 7.70366 7 8.09247 7ZM3.5789 7C3.88319 7 4.14944 6.89167 4.37765 6.675C4.60587 6.45833 4.74533 6.18333 4.79604 5.85L5.3539 2H3.37604L2.36176 5.35C2.26033 5.68333 2.31527 6.04167 2.52658 6.425C2.73789 6.80833 3.08866 7 3.5789 7ZM17.2718 7C17.762 7 18.117 6.80833 18.3368 6.425C18.5565 6.04167 18.6072 5.68333 18.4889 5.35L17.4239 2H15.4968L16.0546 5.85C16.1053 6.18333 16.2448 6.45833 16.473 6.675C16.7012 6.89167 16.9675 7 17.2718 7ZM3.32533 16H17.5253V8.95C17.4408 8.98333 17.3859 9 17.3605 9H17.2718C16.8153 9 16.4138 8.925 16.0673 8.775C15.7207 8.625 15.3784 8.38333 15.0403 8.05C14.736 8.35 14.3895 8.58333 14.0007 8.75C13.6119 8.91667 13.1977 9 12.7582 9C12.3018 9 11.8749 8.91667 11.4777 8.75C11.0804 8.58333 10.7296 8.35 10.4253 8.05C10.1379 8.35 9.80408 8.58333 9.42372 8.75C9.04337 8.91667 8.63343 9 8.1939 9C7.70366 9 7.25991 8.91667 6.86265 8.75C6.46539 8.58333 6.11462 8.35 5.81033 8.05C5.45533 8.4 5.10456 8.64583 4.75801 8.7875C4.41146 8.92917 4.01842 9 3.5789 9H3.46479C3.42253 9 3.37604 8.98333 3.32533 8.95V16Z" fill="#1C1B1F"/>
</svg>
