<svg width="56" height="45" viewBox="0 0 56 45" fill="none" xmlns="http://www.w3.org/2000/svg">
<path d="M33.0547 35.3555L46.2168 29.4706L35.7285 19.5703L33.0547 35.3555ZM25.9723 41.2577C24.8883 41.0736 24.0258 40.5297 23.3848 39.6258C22.7438 38.7219 22.5152 37.7274 22.699 36.6421L26.3755 14.9374C26.5594 13.8522 27.1027 12.9887 28.0055 12.3469C28.9084 11.7052 29.9018 11.4763 30.9857 11.6604L52.6653 15.3412C53.7492 15.5252 54.6117 16.0692 55.2528 16.973C55.8938 17.8769 56.1224 18.8715 55.9385 19.9567L52.262 41.6614C52.0782 42.7466 51.5349 43.6101 50.632 44.2519C49.7292 44.8937 48.7358 45.1225 47.6518 44.9385L25.9723 41.2577ZM26.6407 37.3114L48.3203 40.9922L51.9968 19.2875L30.3173 15.6067L26.6407 37.3114Z" fill="#2A5901"/>
<path d="M28.4644 0.0173913C29.4537 -0.0746988 30.3338 0.19892 31.1038 0.838636C31.8738 1.4784 32.3053 2.29362 32.3973 3.28408L33.0441 10.2489L29.8925 9.7144C29.7123 9.68381 29.5346 9.66565 29.3594 9.65788L28.799 3.61907L3.61486 5.9631L5.95618 31.1773L22.4617 29.6404L21.8365 33.3318L6.29077 34.779C5.30148 34.871 4.4214 34.5967 3.65139 33.9569C2.8816 33.3172 2.45065 32.5018 2.35868 31.5115L0.0173597 6.29809C-0.0745782 5.30763 0.198638 4.42655 0.837653 3.65564C1.47665 2.88483 2.29104 2.45355 3.28027 2.36143L28.4644 0.0173913Z" fill="#2A5901"/>
<path d="M24.0989 19.975L23.0869 25.9489L7.42075 27.4077L12.1482 19.7015L16.698 24.7279L21.4255 17.0216L24.0989 19.975Z" fill="#2A5901"/>
</svg>
