<svg width="24" height="24" viewBox="0 0 24 24" fill="none" xmlns="http://www.w3.org/2000/svg">
<mask id="mask0_705_8684" style="mask-type:alpha" maskUnits="userSpaceOnUse" x="0" y="0" width="24" height="24">
<rect width="24" height="24" fill="#D9D9D9"/>
</mask>
<g mask="url(#mask0_705_8684)">
<path d="M5.56761 14.2121C4.95711 14.2121 4.43478 13.9955 4.00061 13.5623C3.56661 13.1292 3.34961 12.6084 3.34961 12.0001C3.34961 11.3841 3.56619 10.8614 3.99936 10.4321C4.43253 10.0028 4.95328 9.78809 5.56161 9.78809C6.17378 9.78809 6.69778 10.0028 7.13361 10.4321C7.56961 10.8614 7.78761 11.3818 7.78761 11.9931C7.78761 12.6043 7.57028 13.1269 7.13561 13.5611C6.70078 13.9951 6.17811 14.2121 5.56761 14.2121ZM12.0066 14.2121C11.3954 14.2121 10.8728 13.9955 10.4386 13.5623C10.0046 13.1292 9.78761 12.6084 9.78761 12.0001C9.78761 11.3841 10.0042 10.8614 10.4374 10.4321C10.8705 10.0028 11.3913 9.78809 11.9996 9.78809C12.6156 9.78809 13.1383 10.0028 13.5676 10.4321C13.9969 10.8614 14.2116 11.3818 14.2116 11.9931C14.2116 12.6043 13.9969 13.1269 13.5676 13.5611C13.1383 13.9951 12.6179 14.2121 12.0066 14.2121ZM18.4416 14.2121C17.8284 14.2121 17.3034 13.9955 16.8666 13.5623C16.4299 13.1292 16.2116 12.6084 16.2116 12.0001C16.2116 11.3841 16.4299 10.8614 16.8666 10.4321C17.3034 10.0028 17.8284 9.78809 18.4416 9.78809C19.0549 9.78809 19.5763 10.0028 20.0056 10.4321C20.4349 10.8614 20.6496 11.3818 20.6496 11.9931C20.6496 12.6043 20.4349 13.1269 20.0056 13.5611C19.5763 13.9951 19.0549 14.2121 18.4416 14.2121Z" fill="#1C1B1F"/>
</g>
</svg>
