<svg width="56" height="56" viewBox="0 0 56 56" fill="none" xmlns="http://www.w3.org/2000/svg">
<circle cx="28" cy="28" r="28" fill="#E0DFDF"/>
<path d="M38.5496 24.0325C38.5496 30.2467 40.2056 34.6286 42.4136 36.3017C44.0694 37.9747 41.8615 39.0901 40.2056 39.0901H14.7992C13.1405 39.0901 10.9287 37.9706 12.5874 36.2914C14.7992 34.6122 16.4581 30.2141 16.4581 23.9771C16.4581 18.3797 19.2229 16.7005 23.0936 14.4615C23.4198 13.8835 23.8616 13.2544 24.3901 12.693C24.9799 12.0307 25.569 11.6026 26.1453 11.3594C28.6291 10.3112 30.8761 12.6962 31.9256 14.5518C35.7896 16.7826 38.5496 18.4556 38.5496 24.0325Z" fill="black"/>
<path d="M32.2862 42.6572C28.5827 46.6873 24.7494 44.7287 22.6936 42.638C22.3699 42.3088 22.6174 41.7858 23.0762 41.7858H31.8893C32.3481 41.7858 32.5986 42.3171 32.2862 42.6572Z" fill="black"/>
<path d="M26.1453 11.3594C28.6291 10.3112 30.8761 12.6962 31.9256 14.5518C35.7896 16.7826 38.5496 18.4556 38.5496 24.0325C38.5496 30.2467 40.2056 34.6286 42.4136 36.3017C44.0694 37.9747 41.8615 39.0901 40.2056 39.0901H14.7992C13.1405 39.0901 10.9287 37.9706 12.5874 36.2914C14.7992 34.6122 16.4581 30.2141 16.4581 23.9771C16.4581 18.3797 19.2229 16.7005 23.0936 14.4615C23.4198 13.8835 23.8616 13.2544 24.3901 12.693M26.1453 11.3594C25.569 11.6026 24.9799 12.0307 24.3901 12.693M26.1453 11.3594C25.4961 11.6682 24.9024 12.1488 24.3901 12.693M26.1453 11.3594C27.8531 10.547 29.9439 10.924 31.9408 14.4615M24.3901 12.693C23.9568 13.1796 23.523 13.7927 23.0936 14.5518M22.6936 42.638C24.7494 44.7287 28.5827 46.6873 32.2862 42.6572C32.5986 42.3171 32.3481 41.7858 31.8893 41.7858H23.0762C22.6174 41.7858 22.3699 42.3088 22.6936 42.638Z" stroke="black"/>
</svg>
