<svg width="23" height="21" viewBox="0 0 23 21" fill="none" xmlns="http://www.w3.org/2000/svg">
<path fill-rule="evenodd" clip-rule="evenodd" d="M16 6.89844C15.2413 7.30193 14.5776 7.75032 14 8.23145V2H6V13H11.0225C10.9152 13.5298 10.8727 14.0485 10.8848 14.543C10.8729 14.6979 10.8661 14.8504 10.8633 15H3.5C3.06667 15 2.70814 15.1458 2.4248 15.4375C2.14153 15.7291 2 16.0834 2 16.5C2 16.9333 2.14147 17.2919 2.4248 17.5752C2.70814 17.8585 3.06667 18 3.5 18H11.0186C10.8589 18.2751 10.6668 18.5558 10.4375 18.8154C10.2675 19.0079 10.0781 19.1833 9.87402 19.3408C9.63832 19.4297 9.38608 19.4853 9.11523 19.4971C9.07742 19.4987 9.03902 19.5 9 19.5V19.8281C8.73336 19.9233 8.44646 19.9836 8.1377 19.9971C8.0925 19.999 8.04637 20 8 20H3.5C2.53333 20 1.70872 19.6579 1.02539 18.9746C0.342057 18.2913 0 17.4667 0 16.5V3.5C0 2.53333 0.342057 1.70872 1.02539 1.02539C1.70872 0.342057 2.53333 0 3.5 0H16V6.89844ZM3.5 2C3.08333 2 2.72917 2.14583 2.4375 2.4375C2.14583 2.72917 2 3.08333 2 3.5V13.3252C2.2332 13.2086 2.47476 13.1252 2.72461 13.0752C2.97461 13.0252 3.23333 13 3.5 13H4V2H3.5Z" fill="#1C1B1F"/>
<path d="M9.15915 20.4965C11.4478 20.3967 12.6652 18.157 12.9964 17.0125C12.9988 17.0041 12.999 16.9961 12.997 16.9875C12.6219 15.3738 16.8389 10.3273 19 8C16.9364 9.42862 12.454 12.0365 12.032 15.046C12.0237 15.1052 11.9301 15.1117 11.9227 15.0524C11.5399 12.0076 13.7314 7.16575 22.4368 6.00832C22.4685 6.0041 22.4971 6.03149 22.4942 6.06337C21.678 14.7799 16.5322 17.315 14.0277 17.4981C14.01 17.4994 13.995 17.51 13.987 17.5258C12.8333 19.8012 10.3868 20.445 9.15915 20.4965ZM9.15915 20.4965C9.10666 20.4988 9.05361 20.5 9 20.5C9.05039 20.5 9.10352 20.4989 9.15915 20.4965Z" stroke="black"/>
</svg>
