<svg width="21" height="21" viewBox="0 0 21 21" fill="none" xmlns="http://www.w3.org/2000/svg">
<mask id="mask0_872_8464" style="mask-type:alpha" maskUnits="userSpaceOnUse" x="0" y="0" width="21" height="21">
<rect width="21" height="21" fill="#D9D9D9"/>
</mask>
<g mask="url(#mask0_872_8464)">
<path d="M18.8809 18.375L13.2897 12.8625C12.8459 13.2125 12.3356 13.4896 11.7588 13.6938C11.1819 13.8979 10.568 14 9.91719 14C8.3049 14 6.94036 13.4495 5.82359 12.3484C4.70682 11.2474 4.14844 9.90208 4.14844 8.3125C4.14844 6.72292 4.70682 5.3776 5.82359 4.27656C6.94036 3.17552 8.3049 2.625 9.91719 2.625C11.5295 2.625 12.894 3.17552 14.0108 4.27656C15.1276 5.3776 15.6859 6.72292 15.6859 8.3125C15.6859 8.95417 15.5824 9.55937 15.3753 10.1281C15.1682 10.6969 14.8872 11.2 14.5322 11.6375L20.1234 17.15L18.8809 18.375ZM9.91719 12.25C11.0266 12.25 11.9695 11.8672 12.7461 11.1016C13.5227 10.3359 13.9109 9.40625 13.9109 8.3125C13.9109 7.21875 13.5227 6.28906 12.7461 5.52344C11.9695 4.75781 11.0266 4.375 9.91719 4.375C8.80781 4.375 7.86484 4.75781 7.08828 5.52344C6.31172 6.28906 5.92344 7.21875 5.92344 8.3125C5.92344 9.40625 6.31172 10.3359 7.08828 11.1016C7.86484 11.8672 8.80781 12.25 9.91719 12.25Z" fill="#33520c"/>
</g>
</svg>
