<svg width="180" height="30" viewBox="0 0 180 30" fill="none" xmlns="http://www.w3.org/2000/svg">
<path d="M9.40008 17.4404V16.6404C13.2401 16.6404 15.4401 11.6804 12.1201 6.60039C10.4801 4.12039 7.60008 2.36039 5.48008 2.36039C2.80008 2.36039 2.52008 4.00039 2.92008 5.00039C3.88008 7.36039 8.76008 7.12039 8.76008 12.2804V27.4004H7.82013e-05V8.68039C7.82013e-05 1.80039 5.44008 0.000388145 9.40008 0.000388145C16.8801 0.000388145 22.4401 3.32039 22.4401 8.00039C22.4401 13.0404 17.6401 17.4404 9.40008 17.4404ZM23.7863 0.280389H24.7863C24.7863 5.84039 32.5463 1.52039 32.5463 6.72039V27.4004H23.7863V0.280389ZM47.8979 5.48039C54.7779 5.48039 58.3779 10.0804 57.3779 16.3204C56.8579 19.5204 56.6579 21.7604 58.2179 23.1204C59.2579 24.0404 60.5779 23.7604 61.8579 22.4804L62.4579 23.1204C59.6579 26.8404 52.1779 29.9204 49.0579 24.9604C48.8179 26.4804 47.7779 27.5604 44.4179 27.5604C37.2979 27.5604 34.0579 25.3204 34.0579 21.2004C34.0579 17.0404 37.6979 14.8404 45.1779 14.8404C46.4179 14.8404 47.5379 14.8804 48.5779 15.0004C49.5379 7.76039 48.2979 6.00039 45.7779 6.72039C43.1379 7.48039 44.9779 14.4804 39.7779 14.4804C36.3779 14.4804 34.7379 12.4004 35.4579 5.76039H36.4979C36.4979 7.24039 36.9379 8.36039 38.2579 8.36039C40.7779 8.36039 43.2979 5.48039 47.8979 5.48039ZM48.0179 20.4004C48.0579 19.0404 48.2179 17.5604 48.4579 16.0804V15.9204C46.3779 15.6404 44.4179 15.6804 43.2979 16.2404C41.7379 17.0004 41.5379 19.2404 42.6579 22.0004C44.0979 25.6404 45.8179 26.8004 47.3779 26.0404C48.3379 25.6004 48.0179 22.8404 48.0179 20.4004ZM60.8204 5.76039H61.8204C61.8204 9.00039 63.8204 9.24039 66.1404 8.68039C68.5004 8.12039 70.6604 5.48039 73.7404 5.48039C80.6604 5.48039 84.2204 10.0804 83.2204 16.3204C82.7404 19.5204 82.5004 21.7604 84.0604 23.1204C85.1004 24.0404 86.4204 23.7604 87.7004 22.4804L88.3004 23.1204C85.6204 26.6404 78.7004 29.7204 75.3004 25.4804C73.3804 23.0404 73.7804 19.6004 74.3004 16.0804C75.5404 7.88039 73.4604 6.72039 71.1004 7.48039C69.9404 7.84039 69.6204 9.04039 69.5804 10.6404V27.4004H60.8204V5.76039ZM95.2654 12.8004C95.2654 17.9604 88.1054 17.5204 87.7054 20.0804C87.5454 21.1604 87.9854 22.2804 89.6254 22.2804C92.3854 22.2804 93.3854 17.4404 96.9854 17.4404C102.185 17.4404 102.505 22.9604 101.945 27.3604H101.025C101.025 25.6004 100.985 24.4804 99.1854 24.4804C97.2254 24.4804 97.0254 27.6804 93.5054 27.6804C90.1054 27.6804 86.5454 25.8404 86.5454 18.9604V6.68039H83.7454V5.76039H86.5454C92.1454 5.76039 94.3054 2.88039 94.3054 0.24039H95.2654V5.76039H101.225V6.68039H95.2654V12.8004ZM110.309 17.6404C110.469 17.9204 110.629 18.2004 110.829 18.4804C115.469 25.8004 120.469 26.0804 125.069 21.0004C125.349 21.2404 125.589 21.5204 125.829 21.7604C122.429 25.6404 119.909 27.6804 113.829 27.6804C106.669 27.6804 101.869 23.1204 101.869 16.5604C101.869 10.0404 106.669 5.48039 113.829 5.48039C124.389 5.48039 124.709 14.1204 110.309 17.6404ZM113.709 10.0404C112.029 7.32039 109.629 6.60039 108.109 7.56039C106.069 8.88039 107.149 12.2804 109.789 16.8004C113.149 16.1204 115.789 13.4004 113.709 10.0404ZM133.273 12.8004C133.273 17.9604 126.113 17.5204 125.713 20.0804C125.553 21.1604 125.993 22.2804 127.633 22.2804C130.393 22.2804 131.393 17.4404 134.993 17.4404C140.193 17.4404 140.513 22.9604 139.953 27.3604H139.033C139.033 25.6004 138.993 24.4804 137.193 24.4804C135.233 24.4804 135.033 27.6804 131.513 27.6804C128.113 27.6804 124.553 25.8404 124.553 18.9604V6.68039H121.753V5.76039H124.553C130.153 5.76039 132.313 2.88039 132.313 0.24039H133.273V5.76039H139.233V6.68039H133.273V12.8004ZM148.976 12.8004C148.976 17.9604 141.816 17.5204 141.416 20.0804C141.256 21.1604 141.696 22.2804 143.336 22.2804C146.096 22.2804 147.096 17.4404 150.696 17.4404C155.896 17.4404 156.216 22.9604 155.656 27.3604H154.736C154.736 25.6004 154.696 24.4804 152.896 24.4804C150.936 24.4804 150.736 27.6804 147.216 27.6804C143.816 27.6804 140.256 25.8404 140.256 18.9604V6.68039H137.456V5.76039H140.256C145.856 5.76039 148.016 2.88039 148.016 0.24039H148.976V5.76039H154.936V6.68039H148.976V12.8004ZM167.58 5.48039C174.7 5.48039 179.5 10.0404 179.5 16.5604C179.5 23.1204 174.7 27.6804 167.58 27.6804C160.42 27.6804 155.62 23.1204 155.62 16.5604C155.62 10.0404 160.42 5.48039 167.58 5.48039ZM173.26 25.5604C175.58 24.1204 173.9 20.0004 170.54 14.6804C167.14 9.32039 164.14 6.12039 161.86 7.56039C159.58 9.04039 161.18 13.1204 164.58 18.4804C167.98 23.8004 170.98 27.0004 173.26 25.5604Z" fill="#0c532b"/>
</svg>
