<svg width="41" height="20" viewBox="0 0 41 20" fill="none" xmlns="http://www.w3.org/2000/svg">
<path d="M4.92526 15.3201C8.4117 12.8171 12.5861 11.2786 16.8837 10.9601C16.7854 12.3434 16.5679 13.7307 16.2253 15.1081C19.0146 14.3897 21.6652 13.1844 24.0443 11.5461C24.8389 10.9989 26.4132 9.69002 26.4132 9.69002C24.0769 7.06927 21.1375 4.91206 17.6898 3.4521C17.1603 3.2279 16.6274 3.02376 16.0919 2.83932C16.4586 4.1932 16.7103 5.58108 16.8407 6.9876C13.4181 6.74647 10.0216 7.27219 6.88485 8.47021C8.36485 5.8901 10.236 2.4646 13.9596 0.831601C18.6515 -1.22603 27.5982 2.57601 31.0661 4.04972L31.0922 4.06084C34.541 5.52643 37.5123 6.03771 40.612 6.0098C39.7133 7.80505 38.6182 9.44603 37.3644 10.9175C36.0298 12.4838 34.5154 13.858 32.8663 15.0219C32.6927 15.1445 32.5175 15.2647 32.341 15.3825C31.797 15.7456 31.2394 16.0864 30.6697 16.4042C28.5894 17.5647 26.3475 18.419 24.0194 18.9365C21.0393 19.5991 17.918 19.7099 14.8132 19.205C11.324 18.4885 8.57397 16.5955 7.62376 16.4628C6.69294 16.3328 4.97604 16.9475 4.001 17.2965L3.94103 17.318C2.77635 17.7347 1.50495 18.3414 0.232422 19.3021C1.05722 18.415 3.21621 16.6383 4.1571 15.8987L4.92526 15.3201Z" fill="#5CA300" stroke="#5CA300" stroke-width="0.466426" stroke-linejoin="round"/>
</svg>
