<svg width="41" height="20" viewBox="0 0 41 20" fill="none" xmlns="http://www.w3.org/2000/svg">
<path d="M35.9192 15.3201C32.4327 12.8171 28.2584 11.2786 23.9607 10.9601C24.059 12.3434 24.2766 13.7307 24.6191 15.1081C21.8299 14.3897 19.1792 13.1844 16.8001 11.5461C16.0055 10.9989 14.4313 9.69002 14.4313 9.69002C16.7676 7.06927 19.7069 4.91206 23.1546 3.4521C23.6841 3.2279 24.217 3.02376 24.7526 2.83932C24.3858 4.1932 24.1341 5.58108 24.0038 6.9876C27.4264 6.74647 30.8228 7.27219 33.9596 8.47021C32.4796 5.8901 30.6084 2.4646 26.8848 0.831601C22.1929 -1.22603 13.2462 2.57601 9.77837 4.04972L9.75221 4.06084C6.3034 5.52643 3.33211 6.03771 0.232422 6.0098C1.13115 7.80505 2.22621 9.44603 3.48006 10.9175C4.81463 12.4838 6.32908 13.858 7.97811 15.0219C8.15176 15.1445 8.3269 15.2647 8.50348 15.3825C9.04741 15.7456 9.605 16.0864 10.1747 16.4042C12.2551 17.5647 14.4969 18.419 16.825 18.9365C19.8051 19.5991 22.9265 19.7099 26.0312 19.205C29.5205 18.4885 32.2705 16.5955 33.2207 16.4628C34.1515 16.3328 35.8684 16.9475 36.8434 17.2965L36.9034 17.318C38.0681 17.7347 39.3395 18.3414 40.612 19.3021C39.7872 18.415 37.6282 16.6383 36.6873 15.8987L35.9192 15.3201Z" fill="#5CA300" stroke="#5CA300" stroke-width="0.466426" stroke-linejoin="round"/>
</svg>
