<svg width="41" height="20" viewBox="0 0 41 20" fill="none" xmlns="http://www.w3.org/2000/svg">
<path d="M4.92652 15.3201C8.41296 12.8171 12.5873 11.2786 16.885 10.9601C16.7867 12.3434 16.5692 13.7307 16.2266 15.1081C19.0158 14.3897 21.6665 13.1844 24.0456 11.5461C24.8402 10.9989 26.4144 9.69002 26.4144 9.69002C24.0781 7.06927 21.1388 4.91206 17.6911 3.4521C17.1616 3.2279 16.6287 3.02376 16.0931 2.83932C16.4599 4.1932 16.7116 5.58108 16.8419 6.9876C13.4193 6.74647 10.0229 7.27219 6.88612 8.47021C8.36611 5.8901 10.2373 2.4646 13.9609 0.831601C18.6528 -1.22603 27.5995 2.57601 31.0673 4.04972L31.0935 4.06084C34.5423 5.52643 37.5136 6.03771 40.6133 6.0098C39.7146 7.80505 38.6195 9.44603 37.3656 10.9175C36.0311 12.4838 34.5166 13.858 32.8676 15.0219C32.6939 15.1445 32.5188 15.2647 32.3422 15.3825C31.7983 15.7456 31.2407 16.0864 30.671 16.4042C28.5906 17.5647 26.3488 18.419 24.0207 18.9365C21.0406 19.5991 17.9192 19.7099 14.8145 19.205C11.3252 18.4885 8.57523 16.5955 7.62502 16.4628C6.69421 16.3328 4.9773 16.9475 4.00226 17.2965L3.9423 17.318C2.77762 17.7347 1.50622 18.3414 0.233688 19.3021C1.05849 18.415 3.21748 16.6383 4.15836 15.8987L4.92652 15.3201Z" fill="#33520C" stroke="#33520C" stroke-width="0.466426" stroke-linejoin="round"/>
</svg>
